Coordinates
version=1
nRows=27
nColumns=12
inDegrees=yes

Units are S.I. units (second, meters, Newtons, ...)
Angles are in degrees

endheader
time	SC_y	SC_z	SC_x	AC_y	AC_z	AC_x	GH_y	GH_z	GH_yy	EL_x	PS_y
       0.0              -42.78          16.39           34.3          68.26          7.111         -13.04          57.36          48.42          40.06          23.52          91.37
   0.04979              -42.78          16.39          34.29          68.25          7.111         -13.03          57.37          48.41          40.05          23.51          91.36
   0.09958              -42.77          16.39          34.29          68.25          7.111         -13.03          57.39           48.4          40.04          23.51          91.35
    0.1494              -42.77          16.39          34.29          68.24          7.111         -13.02           57.4          48.39          40.03          23.51          91.35
    0.1992              -42.77          16.39          34.29          68.24          7.111         -13.02          57.42          48.38          40.02          23.51          91.34
    0.2489              -42.76          16.39          34.29          68.24          7.111         -13.01          57.44          48.37          40.01           23.5          91.33
    0.2987              -42.76          16.39          34.29          68.23          7.111          -13.0          57.46          48.36           40.0           23.5          91.32
    0.3485              -42.75          16.39          34.28          68.23          7.112          -13.0          57.48          48.35          39.99           23.5          91.31
    0.3983              -42.75          16.39          34.28          68.22          7.112         -12.99          57.51          48.34          39.98          23.49           91.3
    0.4481              -42.75          16.39          34.28          68.21          7.112         -12.98          57.53          48.32          39.96          23.49          91.29
    0.4979              -42.74          16.39          34.28          68.21          7.112         -12.97          57.56          48.31          39.95          23.49          91.27
    0.5477              -42.73          16.39          34.28           68.2          7.112         -12.96          57.59          48.29          39.93          23.48          91.26
    0.5975              -42.73          16.39          34.27          68.19          7.112         -12.95          57.62          48.27          39.92          23.48          91.24
    0.6473              -42.72          16.39          34.27          68.19          7.112         -12.94          57.65          48.26           39.9          23.47          91.23
    0.6971              -42.72          16.39          34.27          68.18          7.112         -12.93          57.69          48.24          39.88          23.47          91.21
    0.7468              -42.71          16.39          34.27          68.17          7.113         -12.92          57.73          48.22          39.85          23.46          91.19
    0.7966               -42.7          16.39          34.26          68.16          7.113         -12.91          57.77          48.19          39.83          23.45          91.17
    0.8464              -42.69          16.39          34.26          68.15          7.113         -12.89          57.82          48.17          39.81          23.45          91.15
    0.8962              -42.68          16.39          34.25          68.13          7.113         -12.87          57.87          48.14          39.78          23.44          91.13
     0.946              -42.67          16.39          34.25          68.12          7.114         -12.86          57.93          48.11          39.75          23.43           91.1
    0.9958              -42.66          16.39          34.24          68.11          7.114         -12.84          57.99          48.08          39.71          23.42          91.07
     1.046              -42.64          16.39          34.24          68.09          7.114         -12.82          58.06          48.04          39.67          23.41          91.04
     1.095              -42.63          16.38          34.23          68.07          7.115         -12.79          58.13           48.0          39.63           23.4           91.0
     1.145              -42.61          16.38          34.23          68.05          7.115         -12.77          58.21          47.96          39.59          23.39          90.96
     1.195               -42.6          16.38          34.22          68.03          7.115         -12.74          58.31          47.91          39.54          23.37          90.92
     1.245              -42.58          16.38          34.21          68.01          7.116         -12.71          58.41          47.85          39.48          23.36          90.87
     1.295              -42.55          16.38           34.2          67.98          7.116         -12.67          58.52          47.79          39.41          23.34          90.82
